<svg xmlns="http://www.w3.org/2000/svg" xmlns:xlink="http://www.w3.org/1999/xlink" xmlns:lucid="lucid" width="1566.01" height="1684"><g transform="translate(-5 -778)" lucid:page-tab-id="0_0"><path d="M380 806a6 6 0 0 1 6-6h508a6 6 0 0 1 6 6v128a6 6 0 0 1-6 6H386a6 6 0 0 1-6-6z" stroke="#3a414a" stroke-width="4" fill="#fff"/><use xlink:href="#a" transform="matrix(1,0,0,1,392,812) translate(31.666666666666742 66)"/><use xlink:href="#b" transform="matrix(1,0,0,1,392,812) translate(182.44444444444449 66)"/><use xlink:href="#c" transform="matrix(1,0,0,1,392,812) translate(258 66)"/><path d="M480 1086a6 6 0 0 1 6-6h308a6 6 0 0 1 6 6v108a6 6 0 0 1-6 6H486a6 6 0 0 1-6-6z" stroke="#3a414a" stroke-width="4" fill="#fff"/><use xlink:href="#d" transform="matrix(1,0,0,1,492,1092) translate(20.388888888888914 56)"/><path d="M230 1286a6 6 0 0 1 6-6h808a6 6 0 0 1 6 6v156a6 6 0 0 1-6 6H236a6 6 0 0 1-6-6z" stroke="#3a414a" stroke-width="4" fill="#fff"/><use xlink:href="#e" transform="matrix(1,0,0,1,242,1292) translate(279.2777777777778 56)"/><use xlink:href="#f" transform="matrix(1,0,0,1,242,1292) translate(390.27777777777777 56)"/><use xlink:href="#g" transform="matrix(1,0,0,1,242,1292) translate(6.5555555555557135 103.99999999999999)"/><use xlink:href="#h" transform="matrix(1,0,0,1,242,1292) translate(163.888888888889 103.99999999999999)"/><use xlink:href="#i" transform="matrix(1,0,0,1,242,1292) translate(241.66666666666674 103.99999999999999)"/><use xlink:href="#j" transform="matrix(1,0,0,1,242,1292) translate(385.77777777777777 103.99999999999999)"/><use xlink:href="#k" transform="matrix(1,0,0,1,242,1292) translate(463.5555555555555 103.99999999999999)"/><use xlink:href="#l" transform="matrix(1,0,0,1,242,1292) translate(510.11111111111103 103.99999999999999)"/><path d="M480 1596a6 6 0 0 1 6-6h308a6 6 0 0 1 6 6v118a6 6 0 0 1-6 6H486a6 6 0 0 1-6-6z" stroke="#3a414a" stroke-width="4" fill="#fff"/><use xlink:href="#m" transform="matrix(1,0,0,1,492,1602) translate(11.444444444444457 61)"/><path d="M152.68 1826a6 6 0 0 1 6-6h308a6 6 0 0 1 6 6v108a6 6 0 0 1-6 6h-308a6 6 0 0 1-6-6z" stroke="#3a414a" stroke-width="4" fill="#fff"/><use xlink:href="#n" transform="matrix(1,0,0,1,164.67497211198167,1832) translate(72.61111111111114 56)"/><path d="M800 1826a6 6 0 0 1 6-6h308a6 6 0 0 1 6 6v108a6 6 0 0 1-6 6H806a6 6 0 0 1-6-6z" stroke="#3a414a" stroke-width="4" fill="#fff"/><use xlink:href="#o" transform="matrix(1,0,0,1,812,1832) translate(25.055555555555586 56)"/><use xlink:href="#p" transform="matrix(1,0,0,1,812,1832) translate(107.05555555555556 56)"/><path d="M480 2026a6 6 0 0 1 6-6h315.33a6 6 0 0 1 6 6v128a6 6 0 0 1-6 6H486a6 6 0 0 1-6-6z" stroke="#3a414a" stroke-width="4" fill="#fff"/><use xlink:href="#q" transform="matrix(1,0,0,1,492,2032) translate(40.38888888888894 66)"/><path d="M480 2326a6 6 0 0 1 6-6h315.33a6 6 0 0 1 6 6v108a6 6 0 0 1-6 6H486a6 6 0 0 1-6-6z" stroke="#3a414a" stroke-width="4" fill="#fff"/><use xlink:href="#r" transform="matrix(1,0,0,1,491.99999999999994,2332) translate(85.44444444444447 56)"/><path d="M640 1204v51.26" stroke="#3a414a" stroke-width="4" fill="none"/><path d="M641.98 1204.05H638V1202H642z" stroke="#3a414a" stroke-width=".05" fill="#3a414a"/><path d="M640 1271.53l-4.63-14.27h9.26z" stroke="#3a414a" stroke-width="4" fill="#3a414a"/><path d="M640 1452v113.26" stroke="#3a414a" stroke-width="4" fill="none"/><path d="M641.98 1452.05H638V1450H642z" stroke="#3a414a" stroke-width=".05" fill="#3a414a"/><path d="M640 1581.53l-4.63-14.27h9.26z" stroke="#3a414a" stroke-width="4" fill="#3a414a"/><path d="M638.08 1722.56l-303.6 89.04" stroke="#3a414a" stroke-width="4" fill="none"/><path d="M643.43 1723.05l-4.84 1.42-.74-2.47h5.27z" stroke="#3a414a" stroke-width=".05" fill="#3a414a"/><path d="M318.9 1816.18l12.37-8.46 2.6 8.9z" stroke="#3a414a" stroke-width="4" fill="#3a414a"/><path d="M641.92 1722.58l296.3 88.9" stroke="#3a414a" stroke-width="4" fill="none"/><path d="M641.4 1724.48l-4.84-1.45.3-1.03h5.28z" stroke="#3a414a" stroke-width=".05" fill="#3a414a"/><path d="M953.8 1816.14l-15 .34 2.67-8.88z" stroke="#3a414a" stroke-width="4" fill="#3a414a"/><path d="M640 1724l-.07 271.26" stroke="#3a414a" stroke-width="4" fill="none"/><path d="M641.97 1724.05h-3.95V1722H642z" stroke="#3a414a" stroke-width=".05" fill="#3a414a"/><path d="M639.92 2011.53l-4.63-14.27h9.26z" stroke="#3a414a" stroke-width="4" fill="#3a414a"/><path d="M958.1 1942.6l-217.34 68.56" stroke="#3a414a" stroke-width="4" fill="none"/><path d="M963.46 1942.98l-4.82 1.52-.8-2.5h5.3z" stroke="#3a414a" stroke-width=".05" fill="#3a414a"/><path d="M725.25 2016.05l12.2-8.7 2.8 8.83z" stroke="#3a414a" stroke-width="4" fill="#3a414a"/><path d="M643.66 2164v131.26" stroke="#3a414a" stroke-width="4" fill="none"/><path d="M645.64 2164.05h-3.95V2162h3.94z" stroke="#3a414a" stroke-width=".05" fill="#3a414a"/><path d="M643.66 2311.53l-4.63-14.27h9.27z" stroke="#3a414a" stroke-width="4" fill="#3a414a"/><path d="M314.6 1942.55l243.55 69.23" stroke="#3a414a" stroke-width="4" fill="none"/><path d="M314.1 1944.46l-4.85-1.38.3-1.08h5.26z" stroke="#3a414a" stroke-width=".05" fill="#3a414a"/><path d="M573.8 2016.23l-15 .56 2.55-8.93z" stroke="#3a414a" stroke-width="4" fill="#3a414a"/><path d="M1054 1364h174a12 12 0 0 1 12 12v992a12 12 0 0 1-12 12H832.06" stroke="#3a414a" stroke-width="4" fill="none"/><path d="M1054.05 1365.97H1052v-3.94h2.05z" stroke="#3a414a" stroke-width=".05" fill="#3a414a"/><path d="M815.8 2380l14.26-4.64v9.28z" stroke="#3a414a" stroke-width="4" fill="#3a414a"/><path d="M804 1655h384a12 12 0 0 1 12 12v664.72a12 12 0 0 1-12 12H832.06" stroke="#3a414a" stroke-width="4" fill="none"/><path d="M804.05 1656.97H802v-3.94h2.05z" stroke="#3a414a" stroke-width=".05" fill="#3a414a"/><path d="M815.8 2343.72l14.26-4.63v9.26z" stroke="#3a414a" stroke-width="4" fill="#3a414a"/><path d="M226 1364H62a12 12 0 0 0-12 12v702a12 12 0 0 0 12 12h393.26" stroke="#3a414a" stroke-width="4" fill="none"/><path d="M228 1365.97h-2.05v-3.94H228z" stroke="#3a414a" stroke-width=".05" fill="#3a414a"/><path d="M471.53 2090l-14.27 4.64v-9.28z" stroke="#3a414a" stroke-width="4" fill="#3a414a"/><path d="M640 944v111.26" stroke="#3a414a" stroke-width="4" fill="none"/><path d="M641.98 944.05H638V942H642z" stroke="#3a414a" stroke-width=".05" fill="#3a414a"/><path d="M640 1071.53l-4.63-14.27h9.26z" stroke="#3a414a" stroke-width="4" fill="#3a414a"/><path d="M476 1140H22a12 12 0 0 0-12 12v978.4a12 12 0 0 0 12 12h433.26" stroke="#3a414a" stroke-width="4" fill="none"/><path d="M478 1141.97h-2.05v-3.94H478z" stroke="#3a414a" stroke-width=".05" fill="#3a414a"/><path d="M471.53 2142.4l-14.27 4.63v-9.27z" stroke="#3a414a" stroke-width="4" fill="#3a414a"/><path d="M476 1655H102a12 12 0 0 0-12 12v386.98a12 12 0 0 0 12 12h335.8a.23.23 0 0 1 .22.25.23.23 0 0 0 .23.25h17" stroke="#3a414a" stroke-width="4" fill="none"/><path d="M478 1656.97h-2.05v-3.94H478z" stroke="#3a414a" stroke-width=".05" fill="#3a414a"/><path d="M471.53 2066.48l-14.27 4.64v-9.27z" stroke="#3a414a" stroke-width="4" fill="#3a414a"/><path d="M804 1140h474a12 12 0 0 1 12 12v1252.95a12 12 0 0 1-12 12H832.06" stroke="#3a414a" stroke-width="4" fill="none"/><path d="M804.05 1141.97H802v-3.94h2.05z" stroke="#3a414a" stroke-width=".05" fill="#3a414a"/><path d="M815.8 2416.95l14.26-4.63v9.27z" stroke="#3a414a" stroke-width="4" fill="#3a414a"/><path d="M831.3 2322.63H1150a12 12 0 0 0 12-12V1892a12 12 0 0 0-12-12h-26" stroke="#3a414a" stroke-width="4" fill="none"/><path d="M815.04 2322.63l14.26-4.64v9.26z" stroke="#3a414a" stroke-width="4" fill="#3a414a"/><path d="M1124.05 1881.97H1122v-3.94h2.05z" stroke="#3a414a" stroke-width=".05" fill="#3a414a"/><path d="M1053.5 1364h10.87" stroke="#3a414a" stroke-width="3" fill="none"/><path d="M1053.54 1365.47H1052v-2.94h1.54z" stroke="#3a414a" stroke-width=".05" fill="#3a414a"/><path d="M1080.14 1364l-14.27 4.63v-9.27z" stroke="#3a414a" stroke-width="3" fill="#3a414a"/><defs><path d="M185-189c-5-48-123-54-124 2 14 75 158 14 163 119 3 78-121 87-175 55-17-10-28-26-33-46l33-7c5 56 141 63 141-1 0-78-155-14-162-118-5-82 145-84 179-34 5 7 8 16 11 25" id="s"/><path d="M30 0v-248h33v221h125V0H30" id="t"/><path d="M232-93c-1 65-40 97-104 97C67 4 28-28 28-90v-158h33c8 89-33 224 67 224 102 0 64-133 71-224h33v155" id="u"/><path d="M233-177c-1 41-23 64-60 70L243 0h-38l-65-103H63V0H30v-248c88 3 205-21 203 71zM63-129c60-2 137 13 137-47 0-61-80-42-137-45v92" id="v"/><path d="M240 0l2-218c-23 76-54 145-80 218h-23L58-218 59 0H30v-248h44l77 211c21-75 51-140 76-211h43V0h-30" id="w"/><g id="a"><use transform="matrix(0.11111111111111108,0,0,0.11111111111111108,0,0)" xlink:href="#s"/><use transform="matrix(0.11111111111111108,0,0,0.11111111111111108,26.666666666666657,0)" xlink:href="#t"/><use transform="matrix(0.11111111111111108,0,0,0.11111111111111108,48.88888888888887,0)" xlink:href="#u"/><use transform="matrix(0.11111111111111108,0,0,0.11111111111111108,77.66666666666664,0)" xlink:href="#v"/><use transform="matrix(0.11111111111111108,0,0,0.11111111111111108,106.44444444444441,0)" xlink:href="#w"/></g><path d="M153-248C145-148 188 4 80 4 36 3 13-21 6-62l32-5c4 25 16 42 43 43 27 0 39-20 39-49v-147H72v-28h81" id="x"/><path d="M100-194c62-1 85 37 85 99 1 63-27 99-86 99S16-35 15-95c0-66 28-99 85-99zM99-20c44 1 53-31 53-75 0-43-8-75-51-75s-53 32-53 75 10 74 51 75" id="y"/><path d="M115-194c53 0 69 39 70 98 0 66-23 100-70 100C84 3 66-7 56-30L54 0H23l1-261h32v101c10-23 28-34 59-34zm-8 174c40 0 45-34 45-75 0-40-5-75-45-74-42 0-51 32-51 76 0 43 10 73 51 73" id="z"/><g id="b"><use transform="matrix(0.11111111111111108,0,0,0.11111111111111108,0,0)" xlink:href="#x"/><use transform="matrix(0.11111111111111108,0,0,0.11111111111111108,19.999999999999993,0)" xlink:href="#y"/><use transform="matrix(0.11111111111111108,0,0,0.11111111111111108,42.22222222222221,0)" xlink:href="#z"/></g><path d="M84 4C-5 8 30-112 23-190h32v120c0 31 7 50 39 49 72-2 45-101 50-169h31l1 190h-30c-1-10 1-25-2-33-11 22-28 36-60 37" id="A"/><path d="M210-169c-67 3-38 105-44 169h-31v-121c0-29-5-50-35-48C34-165 62-65 56 0H25l-1-190h30c1 10-1 24 2 32 10-44 99-50 107 0 11-21 27-35 58-36 85-2 47 119 55 194h-31v-121c0-29-5-49-35-48" id="B"/><path d="M24-231v-30h32v30H24zM24 0v-190h32V0H24" id="C"/><path d="M135-143c-3-34-86-38-87 0 15 53 115 12 119 90S17 21 10-45l28-5c4 36 97 45 98 0-10-56-113-15-118-90-4-57 82-63 122-42 12 7 21 19 24 35" id="D"/><path d="M117-194c89-4 53 116 60 194h-32v-121c0-31-8-49-39-48C34-167 62-67 57 0H25l-1-190h30c1 10-1 24 2 32 11-22 29-35 61-36" id="E"/><g id="c"><use transform="matrix(0.11111111111111108,0,0,0.11111111111111108,0,0)" xlink:href="#s"/><use transform="matrix(0.11111111111111108,0,0,0.11111111111111108,26.666666666666657,0)" xlink:href="#A"/><use transform="matrix(0.11111111111111108,0,0,0.11111111111111108,48.88888888888887,0)" xlink:href="#z"/><use transform="matrix(0.11111111111111108,0,0,0.11111111111111108,71.11111111111109,0)" xlink:href="#B"/><use transform="matrix(0.11111111111111108,0,0,0.11111111111111108,104.3333333333333,0)" xlink:href="#C"/><use transform="matrix(0.11111111111111108,0,0,0.11111111111111108,113.11111111111107,0)" xlink:href="#D"/><use transform="matrix(0.11111111111111108,0,0,0.11111111111111108,133.11111111111106,0)" xlink:href="#D"/><use transform="matrix(0.11111111111111108,0,0,0.11111111111111108,153.11111111111106,0)" xlink:href="#C"/><use transform="matrix(0.11111111111111108,0,0,0.11111111111111108,161.88888888888883,0)" xlink:href="#y"/><use transform="matrix(0.11111111111111108,0,0,0.11111111111111108,184.11111111111103,0)" xlink:href="#E"/></g><path d="M30-248c87 1 191-15 191 75 0 78-77 80-158 76V0H30v-248zm33 125c57 0 124 11 124-50 0-59-68-47-124-48v98" id="F"/><path d="M114-163C36-179 61-72 57 0H25l-1-190h30c1 12-1 29 2 39 6-27 23-49 58-41v29" id="G"/><path d="M100-194c63 0 86 42 84 106H49c0 40 14 67 53 68 26 1 43-12 49-29l28 8c-11 28-37 45-77 45C44 4 14-33 15-96c1-61 26-98 85-98zm52 81c6-60-76-77-97-28-3 7-6 17-6 28h103" id="H"/><path d="M115-194c55 1 70 41 70 98S169 2 115 4C84 4 66-9 55-30l1 105H24l-1-265h31l2 30c10-21 28-34 59-34zm-8 174c40 0 45-34 45-75s-6-73-45-74c-42 0-51 32-51 76 0 43 10 73 51 73" id="I"/><path d="M96-169c-40 0-48 33-48 73s9 75 48 75c24 0 41-14 43-38l32 2c-6 37-31 61-74 61-59 0-76-41-82-99-10-93 101-131 147-64 4 7 5 14 7 22l-32 3c-4-21-16-35-41-35" id="J"/><path d="M177-190C167-65 218 103 67 71c-23-6-38-20-44-43l32-5c15 47 100 32 89-28v-30C133-14 115 1 83 1 29 1 15-40 15-95c0-56 16-97 71-98 29-1 48 16 59 35 1-10 0-23 2-32h30zM94-22c36 0 50-32 50-73 0-42-14-75-50-75-39 0-46 34-46 75s6 73 46 73" id="K"/><g id="d"><use transform="matrix(0.11111111111111108,0,0,0.11111111111111108,0,0)" xlink:href="#F"/><use transform="matrix(0.11111111111111108,0,0,0.11111111111111108,26.666666666666657,0)" xlink:href="#G"/><use transform="matrix(0.11111111111111108,0,0,0.11111111111111108,39.88888888888887,0)" xlink:href="#H"/><use transform="matrix(0.11111111111111108,0,0,0.11111111111111108,62.11111111111109,0)" xlink:href="#I"/><use transform="matrix(0.11111111111111108,0,0,0.11111111111111108,84.3333333333333,0)" xlink:href="#G"/><use transform="matrix(0.11111111111111108,0,0,0.11111111111111108,97.55555555555551,0)" xlink:href="#y"/><use transform="matrix(0.11111111111111108,0,0,0.11111111111111108,119.77777777777774,0)" xlink:href="#J"/><use transform="matrix(0.11111111111111108,0,0,0.11111111111111108,139.77777777777771,0)" xlink:href="#H"/><use transform="matrix(0.11111111111111108,0,0,0.11111111111111108,161.99999999999994,0)" xlink:href="#D"/><use transform="matrix(0.11111111111111108,0,0,0.11111111111111108,181.99999999999994,0)" xlink:href="#D"/><use transform="matrix(0.11111111111111108,0,0,0.11111111111111108,201.99999999999994,0)" xlink:href="#C"/><use transform="matrix(0.11111111111111108,0,0,0.11111111111111108,210.77777777777771,0)" xlink:href="#E"/><use transform="matrix(0.11111111111111108,0,0,0.11111111111111108,232.99999999999991,0)" xlink:href="#K"/></g><path d="M143 0L79-87 56-68V0H24v-261h32v163l83-92h37l-77 82L181 0h-38" id="L"/><g id="e"><use transform="matrix(0.11111111111111108,0,0,0.11111111111111108,0,0)" xlink:href="#s"/><use transform="matrix(0.11111111111111108,0,0,0.11111111111111108,26.666666666666657,0)" xlink:href="#I"/><use transform="matrix(0.11111111111111108,0,0,0.11111111111111108,48.88888888888887,0)" xlink:href="#C"/><use transform="matrix(0.11111111111111108,0,0,0.11111111111111108,57.66666666666665,0)" xlink:href="#L"/><use transform="matrix(0.11111111111111108,0,0,0.11111111111111108,77.66666666666663,0)" xlink:href="#H"/></g><path d="M59-47c-2 24 18 29 38 22v24C64 9 27 4 27-40v-127H5v-23h24l9-43h21v43h35v23H59v120" id="M"/><g id="f"><use transform="matrix(0.11111111111111108,0,0,0.11111111111111108,0,0)" xlink:href="#s"/><use transform="matrix(0.11111111111111108,0,0,0.11111111111111108,26.666666666666657,0)" xlink:href="#y"/><use transform="matrix(0.11111111111111108,0,0,0.11111111111111108,48.88888888888887,0)" xlink:href="#G"/><use transform="matrix(0.11111111111111108,0,0,0.11111111111111108,62.11111111111109,0)" xlink:href="#M"/><use transform="matrix(0.11111111111111108,0,0,0.11111111111111108,73.2222222222222,0)" xlink:href="#C"/><use transform="matrix(0.11111111111111108,0,0,0.11111111111111108,81.99999999999997,0)" xlink:href="#E"/><use transform="matrix(0.11111111111111108,0,0,0.11111111111111108,104.22222222222219,0)" xlink:href="#K"/></g><path d="M87 75C49 33 22-17 22-94c0-76 28-126 65-167h31c-38 41-64 92-64 168S80 34 118 75H87" id="N"/><path d="M180 0L97-118 63-96 45 0H11l48-248h34L69-126c44-43 94-81 141-122h43L121-137 219 0h-39" id="O"/><path d="M50-231l6-30h32l-6 30H50zM6 0l37-190h31L37 0H6" id="P"/><path d="M6 0l50-261h32L37 0H6" id="Q"/><path d="M30-147c31-64 166-65 159 27C183-49 158 1 86 4 9 8 1-88 30-147zM88-20c53 0 68-48 68-100 0-31-11-51-44-50-52 1-68 46-68 97 0 32 13 53 44 53" id="R"/><path d="M55-144c13 50 104 24 104 88C159 21 15 23 1-39l26-10c6 40 102 42 102-4-13-50-104-23-104-87 0-71 143-71 148-8l-29 4c-5-35-85-37-89 0" id="S"/><path d="M66-151c12-25 30-51 66-40l-6 26C45-176 58-65 38 0H6l36-190h30" id="T"/><path d="M51-54c-9 22 5 41 31 30L79-1C43 14 10-4 19-52l22-115H19l5-23h22l19-43h21l-9 43h35l-4 23H73" id="U"/><g id="g"><use transform="matrix(0.11111111111111108,0,0,0.11111111111111108,0,0)" xlink:href="#N"/><use transform="matrix(0.11111111111111108,0,0,0.11111111111111108,13.222222222222218,0)" xlink:href="#O"/><use transform="matrix(0.11111111111111108,0,0,0.11111111111111108,39.88888888888887,0)" xlink:href="#P"/><use transform="matrix(0.11111111111111108,0,0,0.11111111111111108,48.66666666666664,0)" xlink:href="#Q"/><use transform="matrix(0.11111111111111108,0,0,0.11111111111111108,57.444444444444414,0)" xlink:href="#R"/><use transform="matrix(0.11111111111111108,0,0,0.11111111111111108,79.66666666666663,0)" xlink:href="#S"/><use transform="matrix(0.11111111111111108,0,0,0.11111111111111108,99.66666666666663,0)" xlink:href="#R"/><use transform="matrix(0.11111111111111108,0,0,0.11111111111111108,121.88888888888886,0)" xlink:href="#T"/><use transform="matrix(0.11111111111111108,0,0,0.11111111111111108,135.11111111111106,0)" xlink:href="#U"/></g><path d="M123-251c66 0 92 69 53 113C138-94 73-75 39-27h128l-5 27H-2c17-92 123-93 159-163 14-28-1-64-36-62-29 2-46 17-54 41l-30-6c13-36 37-61 86-61" id="V"/><path d="M14 0l8-38h34L48 0H14" id="W"/><path d="M151-85c6-55-69-56-94-29H26l34-134h141l-5 27H84l-20 79c41-34 127-11 121 53C199 13 30 38 8-54l29-8C52 0 159-13 151-85" id="X"/><path d="M58-38C53-5 46 26 28 46H7C19 32 27 18 32 0H17l7-38h34" id="Y"/><g id="h"><use transform="matrix(0.11111111111111108,0,0,0.11111111111111108,0,0)" xlink:href="#V"/><use transform="matrix(0.11111111111111108,0,0,0.11111111111111108,22.222222222222214,0)" xlink:href="#W"/><use transform="matrix(0.11111111111111108,0,0,0.11111111111111108,33.33333333333332,0)" xlink:href="#X"/><use transform="matrix(0.11111111111111108,0,0,0.11111111111111108,55.555555555555536,0)" xlink:href="#Y"/></g><g id="i"><use transform="matrix(0.11111111111111108,0,0,0.11111111111111108,0,0)" xlink:href="#O"/><use transform="matrix(0.11111111111111108,0,0,0.11111111111111108,26.666666666666657,0)" xlink:href="#P"/><use transform="matrix(0.11111111111111108,0,0,0.11111111111111108,35.44444444444443,0)" xlink:href="#Q"/><use transform="matrix(0.11111111111111108,0,0,0.11111111111111108,44.2222222222222,0)" xlink:href="#R"/><use transform="matrix(0.11111111111111108,0,0,0.11111111111111108,66.44444444444441,0)" xlink:href="#S"/><use transform="matrix(0.11111111111111108,0,0,0.11111111111111108,86.4444444444444,0)" xlink:href="#R"/><use transform="matrix(0.11111111111111108,0,0,0.11111111111111108,108.66666666666661,0)" xlink:href="#T"/><use transform="matrix(0.11111111111111108,0,0,0.11111111111111108,121.88888888888883,0)" xlink:href="#U"/></g><path d="M149-56L138 0h-32l11-56H2l5-25 144-167h35L154-81h33l-5 25h-33zm-4-147L40-81h82" id="Z"/><path d="M16-82c0-90 25-169 113-169 48 0 68 33 68 82C197-79 170 4 84 4 37 4 16-31 16-82zm30 5c0 32 11 55 40 55 69 0 76-79 80-149 2-32-10-55-39-55-69 0-81 81-81 149" id="aa"/><g id="j"><use transform="matrix(0.11111111111111108,0,0,0.11111111111111108,0,0)" xlink:href="#Z"/><use transform="matrix(0.11111111111111108,0,0,0.11111111111111108,22.222222222222214,0)" xlink:href="#W"/><use transform="matrix(0.11111111111111108,0,0,0.11111111111111108,33.33333333333332,0)" xlink:href="#aa"/><use transform="matrix(0.11111111111111108,0,0,0.11111111111111108,55.555555555555536,0)" xlink:href="#Y"/></g><g id="k"><use transform="matrix(0.11111111111111108,0,0,0.11111111111111108,0,0)" xlink:href="#R"/><use transform="matrix(0.11111111111111108,0,0,0.11111111111111108,22.222222222222214,0)" xlink:href="#T"/></g><path d="M194-120c59 52 2 134-86 124-53-6-90-18-98-63l31-7c8 30 29 43 70 43 46 0 84-17 71-62-32-43-135-20-137-98-3-89 178-90 191-16l-30 9c-8-48-127-53-127 5 0 53 81 35 115 65" id="ab"/><path d="M67-162c32-53 139-36 121 50C175-51 163 2 97 4 68 4 52-11 42-31 38 6 28 39 22 75H-9l50-265h29c-1 10 0 20-3 28zm89 36c0-26-10-43-35-43-54 0-67 50-69 103-1 29 14 45 42 46 53 0 62-58 62-106" id="ac"/><path d="M127 0L80-88 50-66 37 0H6l51-261h31L57-100l99-90h39l-93 82L161 0h-34" id="ad"/><path d="M67-158c22-48 132-52 116 29L158 0h-32l25-140c3-38-53-32-70-12C52-117 51-52 38 0H6l36-190h30" id="ae"/><path d="M103-194c29 0 47 14 56 36 2-11 5-23 8-32h30L160-5C157 61 82 97 21 62 9 55 4 45 1 30l28-7c7 42 83 31 92-3 4-16 9-38 13-55-13 20-29 36-62 36-40 0-60-25-60-64 0-71 23-131 91-131zm4 24c-53 0-58 54-61 104-2 27 10 44 36 44 49 0 65-50 67-102 1-29-15-46-42-46" id="af"/><path d="M125-24c46 0 70-25 89-51l25 16C214-24 183 4 123 4 8 4-5-146 60-208c32-50 158-61 191-5 5 7 9 14 11 22l-32 10c-9-28-33-43-69-43-74 0-108 51-108 125 0 46 24 75 72 75" id="ag"/><path d="M44-68c0 29 11 47 38 47 30 0 42-19 51-41l28 9C148-21 126 4 82 4 31 4 10-29 12-85c3-77 74-140 146-93 12 8 15 23 18 40l-31 5c-1-22-13-36-36-36-52 0-65 49-65 101" id="ah"/><path d="M67 3c-93-2-31-127-26-193h32L48-50c-3 39 53 32 70 12 30-34 30-101 43-152h32L157 0h-30c1-10 6-24 4-33-14 20-29 37-64 36" id="ai"/><path d="M33-261c38 41 65 92 65 168S71 34 33 75H2C39 34 66-17 66-93S39-220 2-261h31" id="aj"/><g id="l"><use transform="matrix(0.11111111111111108,0,0,0.11111111111111108,0,0)" xlink:href="#ab"/><use transform="matrix(0.11111111111111108,0,0,0.11111111111111108,26.666666666666657,0)" xlink:href="#ac"/><use transform="matrix(0.11111111111111108,0,0,0.11111111111111108,48.88888888888887,0)" xlink:href="#P"/><use transform="matrix(0.11111111111111108,0,0,0.11111111111111108,57.66666666666665,0)" xlink:href="#ad"/><use transform="matrix(0.11111111111111108,0,0,0.11111111111111108,77.66666666666663,0)" xlink:href="#P"/><use transform="matrix(0.11111111111111108,0,0,0.11111111111111108,86.4444444444444,0)" xlink:href="#ae"/><use transform="matrix(0.11111111111111108,0,0,0.11111111111111108,108.66666666666661,0)" xlink:href="#af"/><use transform="matrix(0.11111111111111108,0,0,0.11111111111111108,130.88888888888883,0)" xlink:href="#ag"/><use transform="matrix(0.11111111111111108,0,0,0.11111111111111108,159.6666666666666,0)" xlink:href="#P"/><use transform="matrix(0.11111111111111108,0,0,0.11111111111111108,168.44444444444437,0)" xlink:href="#T"/><use transform="matrix(0.11111111111111108,0,0,0.11111111111111108,181.6666666666666,0)" xlink:href="#ah"/><use transform="matrix(0.11111111111111108,0,0,0.11111111111111108,201.6666666666666,0)" xlink:href="#ai"/><use transform="matrix(0.11111111111111108,0,0,0.11111111111111108,223.8888888888888,0)" xlink:href="#S"/><use transform="matrix(0.11111111111111108,0,0,0.11111111111111108,243.8888888888888,0)" xlink:href="#V"/><use transform="matrix(0.11111111111111108,0,0,0.11111111111111108,266.11111111111103,0)" xlink:href="#aj"/></g><g id="m"><use transform="matrix(0.11111111111111108,0,0,0.11111111111111108,0,0)" xlink:href="#F"/><use transform="matrix(0.11111111111111108,0,0,0.11111111111111108,26.666666666666657,0)" xlink:href="#y"/><use transform="matrix(0.11111111111111108,0,0,0.11111111111111108,48.88888888888887,0)" xlink:href="#D"/><use transform="matrix(0.11111111111111108,0,0,0.11111111111111108,68.88888888888886,0)" xlink:href="#M"/><use transform="matrix(0.11111111111111108,0,0,0.11111111111111108,79.99999999999997,0)" xlink:href="#I"/><use transform="matrix(0.11111111111111108,0,0,0.11111111111111108,102.22222222222219,0)" xlink:href="#G"/><use transform="matrix(0.11111111111111108,0,0,0.11111111111111108,115.44444444444441,0)" xlink:href="#y"/><use transform="matrix(0.11111111111111108,0,0,0.11111111111111108,137.66666666666663,0)" xlink:href="#J"/><use transform="matrix(0.11111111111111108,0,0,0.11111111111111108,157.66666666666663,0)" xlink:href="#H"/><use transform="matrix(0.11111111111111108,0,0,0.11111111111111108,179.88888888888886,0)" xlink:href="#D"/><use transform="matrix(0.11111111111111108,0,0,0.11111111111111108,199.88888888888886,0)" xlink:href="#D"/><use transform="matrix(0.11111111111111108,0,0,0.11111111111111108,219.88888888888886,0)" xlink:href="#C"/><use transform="matrix(0.11111111111111108,0,0,0.11111111111111108,228.66666666666666,0)" xlink:href="#E"/><use transform="matrix(0.11111111111111108,0,0,0.11111111111111108,250.88888888888886,0)" xlink:href="#K"/></g><path d="M212-179c-10-28-35-45-73-45-59 0-87 40-87 99 0 60 29 101 89 101 43 0 62-24 78-52l27 14C228-24 195 4 139 4 59 4 22-46 18-125c-6-104 99-153 187-111 19 9 31 26 39 46" id="ak"/><path d="M141-36C126-15 110 5 73 4 37 3 15-17 15-53c-1-64 63-63 125-63 3-35-9-54-41-54-24 1-41 7-42 31l-33-3c5-37 33-52 76-52 45 0 72 20 72 64v82c-1 20 7 32 28 27v20c-31 9-61-2-59-35zM48-53c0 20 12 33 32 33 41-3 63-29 60-74-43 2-92-5-92 41" id="al"/><g id="n"><use transform="matrix(0.11111111111111108,0,0,0.11111111111111108,0,0)" xlink:href="#ak"/><use transform="matrix(0.11111111111111108,0,0,0.11111111111111108,28.777777777777768,0)" xlink:href="#A"/><use transform="matrix(0.11111111111111108,0,0,0.11111111111111108,50.999999999999986,0)" xlink:href="#G"/><use transform="matrix(0.11111111111111108,0,0,0.11111111111111108,64.2222222222222,0)" xlink:href="#al"/><use transform="matrix(0.11111111111111108,0,0,0.11111111111111108,86.44444444444441,0)" xlink:href="#M"/><use transform="matrix(0.11111111111111108,0,0,0.11111111111111108,97.55555555555551,0)" xlink:href="#C"/><use transform="matrix(0.11111111111111108,0,0,0.11111111111111108,106.33333333333329,0)" xlink:href="#y"/><use transform="matrix(0.11111111111111108,0,0,0.11111111111111108,128.5555555555555,0)" xlink:href="#E"/></g><g id="o"><use transform="matrix(0.11111111111111108,0,0,0.11111111111111108,0,0)" xlink:href="#u"/><use transform="matrix(0.11111111111111108,0,0,0.11111111111111108,28.777777777777768,0)" xlink:href="#E"/><use transform="matrix(0.11111111111111108,0,0,0.11111111111111108,50.999999999999986,0)" xlink:href="#C"/><use transform="matrix(0.11111111111111108,0,0,0.11111111111111108,59.77777777777776,0)" xlink:href="#M"/></g><path d="M24 0v-261h32V0H24" id="am"/><path d="M101-234c-31-9-42 10-38 44h38v23H63V0H32v-167H5v-23h27c-7-52 17-82 69-68v24" id="an"/><g id="p"><use transform="matrix(0.11111111111111108,0,0,0.11111111111111108,0,0)" xlink:href="#ak"/><use transform="matrix(0.11111111111111108,0,0,0.11111111111111108,28.777777777777768,0)" xlink:href="#am"/><use transform="matrix(0.11111111111111108,0,0,0.11111111111111108,37.55555555555554,0)" xlink:href="#al"/><use transform="matrix(0.11111111111111108,0,0,0.11111111111111108,59.77777777777776,0)" xlink:href="#D"/><use transform="matrix(0.11111111111111108,0,0,0.11111111111111108,79.77777777777774,0)" xlink:href="#D"/><use transform="matrix(0.11111111111111108,0,0,0.11111111111111108,99.77777777777774,0)" xlink:href="#C"/><use transform="matrix(0.11111111111111108,0,0,0.11111111111111108,108.55555555555551,0)" xlink:href="#an"/><use transform="matrix(0.11111111111111108,0,0,0.11111111111111108,119.66666666666663,0)" xlink:href="#C"/><use transform="matrix(0.11111111111111108,0,0,0.11111111111111108,128.4444444444444,0)" xlink:href="#H"/><use transform="matrix(0.11111111111111108,0,0,0.11111111111111108,150.66666666666663,0)" xlink:href="#G"/></g><path d="M137 0h-34L2-248h35l83 218 83-218h36" id="ao"/><path d="M9 0v-24l116-142H16v-24h144v24L44-24h123V0H9" id="ap"/><g id="q"><use transform="matrix(0.11111111111111108,0,0,0.11111111111111108,0,0)" xlink:href="#ao"/><use transform="matrix(0.11111111111111108,0,0,0.11111111111111108,25.88888888888888,0)" xlink:href="#C"/><use transform="matrix(0.11111111111111108,0,0,0.11111111111111108,34.66666666666666,0)" xlink:href="#D"/><use transform="matrix(0.11111111111111108,0,0,0.11111111111111108,54.66666666666665,0)" xlink:href="#A"/><use transform="matrix(0.11111111111111108,0,0,0.11111111111111108,76.88888888888886,0)" xlink:href="#al"/><use transform="matrix(0.11111111111111108,0,0,0.11111111111111108,99.11111111111107,0)" xlink:href="#am"/><use transform="matrix(0.11111111111111108,0,0,0.11111111111111108,107.88888888888884,0)" xlink:href="#C"/><use transform="matrix(0.11111111111111108,0,0,0.11111111111111108,116.6666666666666,0)" xlink:href="#ap"/><use transform="matrix(0.11111111111111108,0,0,0.11111111111111108,136.6666666666666,0)" xlink:href="#al"/><use transform="matrix(0.11111111111111108,0,0,0.11111111111111108,158.8888888888888,0)" xlink:href="#M"/><use transform="matrix(0.11111111111111108,0,0,0.11111111111111108,169.99999999999991,0)" xlink:href="#C"/><use transform="matrix(0.11111111111111108,0,0,0.11111111111111108,178.7777777777777,0)" xlink:href="#y"/><use transform="matrix(0.11111111111111108,0,0,0.11111111111111108,200.9999999999999,0)" xlink:href="#E"/></g><g id="r"><use transform="matrix(0.11111111111111108,0,0,0.11111111111111108,0,0)" xlink:href="#v"/><use transform="matrix(0.11111111111111108,0,0,0.11111111111111108,28.777777777777768,0)" xlink:href="#H"/><use transform="matrix(0.11111111111111108,0,0,0.11111111111111108,50.999999999999986,0)" xlink:href="#D"/><use transform="matrix(0.11111111111111108,0,0,0.11111111111111108,70.99999999999997,0)" xlink:href="#A"/><use transform="matrix(0.11111111111111108,0,0,0.11111111111111108,93.22222222222219,0)" xlink:href="#am"/><use transform="matrix(0.11111111111111108,0,0,0.11111111111111108,101.99999999999996,0)" xlink:href="#M"/><use transform="matrix(0.11111111111111108,0,0,0.11111111111111108,113.11111111111106,0)" xlink:href="#D"/></g></defs></g></svg>